<?xml version="1.0" encoding="UTF-8"?>
<svg id="_Слой_2" data-name="Слой 2" xmlns="http://www.w3.org/2000/svg" viewBox="0 0 121.31 191">
  <defs>
    <style>
      .cls-1 {
        fill: #1b330e;
        stroke-miterlimit: 10;
      }

      .cls-1, .cls-2 {
        stroke: #1b330e;
      }

      .cls-2 {
        fill: none;
        stroke-linecap: round;
        stroke-linejoin: round;
      }
    </style>
  </defs>
  <g id="OBJECTS">
    <g>
      <g>
        <path class="cls-1" d="M30.23,26.52c-1.38.55-1.73,1-2.16,2.77-.43-1.77-.78-2.22-2.16-2.77,1.38-.55,1.73-1,2.16-2.77.43,1.77.78,2.22,2.16,2.77Z"/>
        <path class="cls-1" d="M94.8,26.52c-1.38.55-1.73,1-2.16,2.77-.43-1.77-.78-2.22-2.16-2.77,1.38-.55,1.73-1,2.16-2.77.43,1.77.78,2.22,2.16,2.77Z"/>
        <g>
          <path class="cls-1" d="M66.49,15.93c-3.73,1.49-4.67,2.69-5.83,7.46-1.16-4.77-2.1-5.97-5.83-7.46,3.73-1.49,4.67-2.69,5.83-7.46,1.16,4.77,2.1,5.97,5.83,7.46Z"/>
          <path class="cls-1" d="M56.08,22.1c-2.21.88-2.77,1.59-3.46,4.42-.69-2.83-1.25-3.54-3.46-4.42,2.21-.88,2.77-1.59,3.46-4.42.69,2.83,1.25,3.54,3.46,4.42Z"/>
          <path class="cls-1" d="M65.23,22.1c2.21.88,2.77,1.59,3.46,4.42.69-2.83,1.25-3.54,3.46-4.42-2.21-.88-2.77-1.59-3.46-4.42-.69,2.83-1.25,3.54-3.46,4.42Z"/>
        </g>
        <path class="cls-1" d="M30.23,164.48c-1.38-.55-1.73-1-2.16-2.77-.43,1.77-.78,2.22-2.16,2.77,1.38.55,1.73,1,2.16,2.77.43-1.77.78-2.22,2.16-2.77Z"/>
        <path class="cls-1" d="M94.8,164.48c-1.38-.55-1.73-1-2.16-2.77-.43,1.77-.78,2.22-2.16,2.77,1.38.55,1.73,1,2.16,2.77.43-1.77.78-2.22,2.16-2.77Z"/>
        <g>
          <path class="cls-1" d="M66.49,175.07c-3.73-1.49-4.67-2.69-5.83-7.46-1.16,4.77-2.1,5.97-5.83,7.46,3.73,1.49,4.67,2.69,5.83,7.46,1.16-4.77,2.1-5.97,5.83-7.46Z"/>
          <path class="cls-1" d="M56.08,168.9c-2.21-.88-2.77-1.59-3.46-4.42-.69,2.83-1.25,3.54-3.46,4.42,2.21.88,2.77,1.59,3.46,4.42.69-2.83,1.25-3.54,3.46-4.42Z"/>
          <path class="cls-1" d="M65.23,168.9c2.21-.88,2.77-1.59,3.46-4.42.69,2.83,1.25,3.54,3.46,4.42-2.21.88-2.77,1.59-3.46,4.42-.69-2.83-1.25-3.54-3.46-4.42Z"/>
        </g>
      </g>
      <g>
        <path class="cls-2" d="M60.36,190.5c-5.32,0-8.58-2.28-10.38-4.19-2.1-2.22-3.17-4.91-3.72-7.23h-9.93c-5.87,0-10.83-3.99-12.31-9.4h-10.74c-7.04,0-12.76-5.72-12.76-12.76V34.08c0-7.04,5.73-12.76,12.76-12.76h10.74c1.48-5.41,6.44-9.4,12.31-9.4h9.93c.55-2.33,1.62-5.01,3.72-7.23,1.8-1.91,5.07-4.19,10.39-4.19h.59c5.32,0,8.58,2.28,10.39,4.19,2.1,2.22,3.17,4.91,3.72,7.23h9.93c5.87,0,10.83,3.99,12.31,9.4h10.74c7.04,0,12.76,5.72,12.76,12.76v122.83c0,7.04-5.73,12.76-12.76,12.76h-10.74c-1.48,5.41-6.44,9.4-12.31,9.4h-9.93c-.55,2.33-1.62,5.01-3.72,7.23-1.8,1.91-5.07,4.19-10.39,4.19h-.59Z"/>
        <g>
          <g>
            <g>
              <line class="cls-2" x1="14.47" y1="26.65" x2="5.79" y2="35.32"/>
              <line class="cls-2" x1="20.09" y1="26.52" x2="5.79" y2="40.81"/>
            </g>
            <g>
              <line class="cls-2" x1="106.84" y1="26.65" x2="115.52" y2="35.32"/>
              <line class="cls-2" x1="101.22" y1="26.52" x2="115.52" y2="40.81"/>
            </g>
            <g>
              <line class="cls-2" x1="14.47" y1="164.35" x2="5.79" y2="155.68"/>
              <line class="cls-2" x1="20.09" y1="164.48" x2="5.79" y2="150.19"/>
            </g>
            <g>
              <line class="cls-2" x1="106.84" y1="164.35" x2="115.52" y2="155.68"/>
              <line class="cls-2" x1="101.22" y1="164.48" x2="115.52" y2="150.19"/>
            </g>
          </g>
          <g>
            <path class="cls-2" d="M70.45,15.28c-.28-3.23-1.83-9.87-9.8-9.7-7.68-.16-9.4,6-9.76,9.33"/>
            <path class="cls-2" d="M92.43,22.8c-.84-3.33-3.85-5.8-7.44-5.8h-8.96"/>
            <path class="cls-2" d="M45.9,17.01h-9.58c-3.33,0-6.17,2.12-7.23,5.09"/>
            <path class="cls-2" d="M70.45,175.72c-.28,3.23-1.83,9.87-9.8,9.7-7.68.16-9.4-6-9.76-9.33"/>
            <path class="cls-2" d="M92.43,168.2c-.84,3.33-3.85,5.8-7.44,5.8h-8.96"/>
            <path class="cls-2" d="M97.81,164.59h10.24c4.24,0,7.68-3.44,7.68-7.68V34.08c0-4.24-3.44-7.68-7.68-7.68h-10.24"/>
            <path class="cls-2" d="M22.88,164.59h-9.62c-4.24,0-7.68-3.44-7.68-7.68V34.08c0-4.24,3.44-7.68,7.68-7.68h9.62"/>
            <path class="cls-2" d="M45.9,173.99h-9.58c-3.33,0-6.17-2.12-7.23-5.09"/>
          </g>
        </g>
      </g>
    </g>
  </g>
</svg>